<?xml version="1.0" encoding="UTF-8"?>
<svg width="555px" height="318px" viewBox="0 0 555 318" version="1.1" xmlns="http://www.w3.org/2000/svg" xmlns:xlink="http://www.w3.org/1999/xlink">
    <!-- Generator: Sketch 57.1 (83088) - https://sketch.com -->
    <title>Untitled 2</title>
    <desc>Created with Sketch.</desc>
    <g id="Page-1" stroke="none" stroke-width="1" fill="none" fill-rule="evenodd">
        <g id="logo" fill-rule="nonzero">
            <path d="M206.187,21.094 L121.837,21.093 L121.839,205.078 L112.467,214.453 L103.094,205.078 L103.092,21.093 L18.744,21.094 L1.42108547e-14,2.344 L1.42108547e-14,-1.42108547e-14 L224.93,-1.42108547e-14 L224.93,2.344 L206.187,21.094 Z M91.379,103.125 L72.635,103.125 L72.635,84.375 L91.379,84.375 L91.379,103.125 Z M49.204,103.125 L49.204,60.937 L91.379,60.937 L91.379,75 L63.263,75 L63.263,103.125 L49.204,103.125 Z M91.379,49.219 L37.489,49.219 L37.489,114.844 L91.379,114.844 L91.379,164.063 L72.635,164.063 L72.635,133.594 L18.745,133.594 L18.745,30.469 L91.379,30.469 L91.379,49.219 Z M49.204,173.787 L49.204,145.312 L63.263,145.312 L63.263,167.955 L68.75,173.444 L91.379,173.444 L91.362,187.5 L62.913,187.5 L49.204,173.787 Z M37.489,178.66 L58.228,199.406 L91.379,199.406 L91.379,204.309 L108.952,221.883 L108.952,225 L50.376,218.087 L18.745,186.446 L18.745,145.312 L37.489,145.311 L37.489,178.66 Z M133.554,145.312 L152.298,145.312 L152.298,164.063 L133.554,164.063 L133.554,145.312 Z M175.728,145.312 L175.728,173.787 L162.003,187.5 L133.554,187.5 L133.554,173.444 L156.182,173.444 L161.67,167.955 L161.67,145.312 L175.728,145.312 Z M133.554,30.469 L206.188,30.469 L206.188,103.125 L187.443,103.125 L187.443,49.219 L133.554,49.219 L133.554,30.469 Z M133.554,103.125 L133.554,84.375 L152.298,84.375 L152.298,103.125 L133.554,103.125 Z M133.554,60.937 L175.728,60.937 L175.728,103.125 L161.67,103.125 L161.67,75 L133.554,75 L133.554,60.937 Z M133.554,199.406 L166.539,199.406 L187.443,178.66 L187.443,133.594 L133.554,133.594 L133.554,114.844 L206.188,114.844 L206.188,186.446 L174.668,218.087 L115.981,225 L115.981,221.883 L133.554,204.309 L133.554,199.406 Z" id="Shape" fill="#30C699"></path>
            <path d="M527.492,160.347 L546.899,160.347 C548.566,160.347 550,160.94 551.201,162.126 C552.401,163.311 553,164.754 553,166.451 L553,172.951 C553,174.649 552.401,176.091 551.201,177.277 C550,178.463 548.566,179.056 546.899,179.056 L527.492,179.056 C525.795,179.056 524.354,178.463 523.169,177.277 C521.983,176.091 521.391,174.649 521.391,172.951 L521.391,170.536 L527.186,170.536 L527.186,172.951 C527.186,173.156 527.287,173.259 527.492,173.259 L546.899,173.259 C547.073,173.259 547.161,173.156 547.161,172.951 L547.161,166.451 C547.161,166.247 547.073,166.145 546.899,166.145 L527.492,166.145 C525.795,166.145 524.354,165.551 523.169,164.365 C521.983,163.18 521.391,161.738 521.391,160.04 L521.391,153.54 C521.391,151.843 521.983,150.4 523.169,149.214 C524.354,148.028 525.795,147.435 527.492,147.435 L546.899,147.435 C548.566,147.435 550,148.028 551.201,149.214 C552.401,150.4 553,151.843 553,153.54 L553,155.955 L547.161,155.955 L547.161,153.54 C547.161,153.336 547.073,153.232 546.899,153.232 L527.492,153.232 C527.287,153.232 527.186,153.336 527.186,153.54 L527.186,160.04 C527.186,160.245 527.287,160.347 527.492,160.347 Z M533.682,126.355 L527.887,126.355 L527.887,114.542 L513.267,94.736 L520.16,94.736 L530.784,108.174 L541.365,94.736 L548.302,94.736 L533.682,114.542 L533.682,126.355 Z M523.716,73.656 L498.252,73.656 L498.252,42.036 L523.716,42.036 C525.414,42.036 526.863,42.629 528.063,43.815 C529.262,45 529.863,46.443 529.863,48.141 L529.863,67.552 C529.863,69.25 529.262,70.692 528.063,71.877 C526.863,73.063 525.414,73.656 523.716,73.656 Z M524.024,48.141 C524.024,47.936 523.921,47.833 523.716,47.833 L504.355,47.833 C504.15,47.833 504.047,47.936 504.047,48.141 L504.047,67.552 C504.047,67.757 504.15,67.859 504.355,67.859 L523.716,67.859 C523.921,67.859 524.024,67.757 524.024,67.552 L524.024,48.141 Z M460.233,42.036 L489.297,42.036 L489.297,47.833 L466.072,47.833 L466.072,54.948 L484.775,54.948 L484.775,60.745 L466.072,60.745 L466.072,67.859 L489.297,67.859 L489.297,73.656 L460.233,73.656 L460.233,42.036 Z M438.721,115.508 L428.49,115.508 L428.36,115.508 L428.36,126.355 L422.564,126.355 L422.564,94.78 L448.027,94.78 C449.725,94.78 451.174,95.38 452.375,96.58 C453.575,97.781 454.174,99.215 454.174,100.884 L454.174,109.404 C454.174,111.073 453.575,112.508 452.375,113.708 C451.174,114.909 449.725,115.508 448.027,115.508 L446.316,115.508 L454.174,124.863 L454.174,126.355 L447.853,126.355 L438.721,115.508 Z M448.027,109.711 C448.233,109.711 448.335,109.609 448.335,109.404 L448.335,100.884 C448.335,100.68 448.233,100.577 448.027,100.577 L428.666,100.577 C428.461,100.577 428.36,100.68 428.36,100.884 L428.36,109.404 C428.36,109.609 428.461,109.711 428.666,109.711 L448.027,109.711 Z M439.598,73.656 L433.759,73.656 L433.759,47.833 L420.851,47.833 L420.851,42.036 L452.462,42.036 L452.462,47.833 L439.598,47.833 L439.598,73.656 Z M403.203,179.056 L397.979,179.056 L379.715,147.435 L386.433,147.435 L400.613,172.029 L414.751,147.435 L421.467,147.435 L403.203,179.056 Z M407.286,126.355 L387.881,126.355 C386.183,126.355 384.742,125.763 383.557,124.578 C382.372,123.391 381.778,121.95 381.778,120.251 L381.778,94.736 L387.574,94.736 L387.574,120.251 C387.574,120.456 387.676,120.559 387.881,120.559 L407.286,120.559 C407.462,120.559 407.55,120.456 407.55,120.251 L407.55,94.736 L413.389,94.736 L413.389,120.251 C413.389,121.95 412.789,123.391 411.589,124.578 C410.389,125.763 408.954,126.355 407.286,126.355 Z M407.243,73.656 L387.837,73.656 C386.139,73.656 384.698,73.063 383.513,71.877 C382.328,70.692 381.735,69.25 381.735,67.552 L381.735,65.136 L387.53,65.136 L387.53,67.552 C387.53,67.757 387.632,67.859 387.837,67.859 L407.243,67.859 C407.418,67.859 407.506,67.757 407.506,67.552 L407.506,61.052 C407.506,60.848 407.418,60.745 407.243,60.745 L387.837,60.745 C386.139,60.745 384.698,60.152 383.513,58.966 C382.328,57.78 381.735,56.338 381.735,54.64 L381.735,48.141 C381.735,46.443 382.328,45 383.513,43.815 C384.698,42.629 386.139,42.036 387.837,42.036 L407.243,42.036 C408.911,42.036 410.345,42.629 411.545,43.815 C412.745,45 413.345,46.443 413.345,48.141 L413.345,50.556 L407.506,50.556 L407.506,48.141 C407.506,47.936 407.418,47.833 407.243,47.833 L387.837,47.833 C387.632,47.833 387.53,47.936 387.53,48.141 L387.53,54.64 C387.53,54.845 387.632,54.948 387.837,54.948 L407.243,54.948 C408.911,54.948 410.345,55.541 411.545,56.727 C412.745,57.912 413.345,59.354 413.345,61.052 L413.345,67.552 C413.345,69.25 412.745,70.692 411.545,71.877 C410.345,73.063 408.911,73.656 407.243,73.656 Z M357.5,168.208 L347.27,168.208 L347.139,168.208 L347.139,179.056 L341.343,179.056 L341.343,147.479 L366.807,147.479 C368.505,147.479 369.954,148.08 371.154,149.28 C372.354,150.48 372.954,151.915 372.954,153.584 L372.954,162.104 C372.954,163.772 372.354,165.207 371.154,166.407 C369.954,167.608 368.505,168.208 366.807,168.208 L365.096,168.208 L372.954,177.563 L372.954,179.056 L366.632,179.056 L357.5,168.208 Z M366.807,162.411 C367.012,162.411 367.115,162.308 367.115,162.104 L367.115,153.584 C367.115,153.38 367.012,153.276 366.807,153.276 L347.446,153.276 C347.241,153.276 347.139,153.38 347.139,153.584 L347.139,162.104 C347.139,162.308 347.241,162.411 347.446,162.411 L366.807,162.411 Z M343.166,124.578 C341.98,123.391 341.387,121.95 341.387,120.251 L341.387,100.84 C341.387,99.143 341.98,97.7 343.166,96.515 C344.351,95.329 345.792,94.736 347.49,94.736 L372.91,94.736 L372.91,100.533 L347.49,100.533 C347.285,100.533 347.183,100.636 347.183,100.84 L347.183,120.251 C347.183,120.456 347.285,120.559 347.49,120.559 L372.91,120.559 L372.91,126.355 L347.49,126.355 C345.792,126.355 344.351,125.763 343.166,124.578 L343.166,124.578 Z M366.631,73.656 L347.226,73.656 C345.529,73.656 344.088,73.063 342.902,71.877 C341.717,70.692 341.124,69.25 341.124,67.552 L341.124,42.036 L346.92,42.036 L346.92,67.552 C346.92,67.757 347.021,67.859 347.226,67.859 L366.631,67.859 C366.807,67.859 366.895,67.757 366.895,67.552 L366.895,42.036 L372.734,42.036 L372.734,67.552 C372.734,69.25 372.135,70.692 370.935,71.877 C369.734,73.063 368.3,73.656 366.631,73.656 L366.631,73.656 Z M303.455,147.435 L332.52,147.435 L332.52,153.232 L309.295,153.232 L309.295,160.347 L327.998,160.347 L327.998,166.145 L309.295,166.145 L309.295,173.259 L332.52,173.259 L332.52,179.056 L303.455,179.056 L303.455,147.435 Z M303.455,94.736 L332.52,94.736 L332.52,100.533 L309.295,100.533 L309.295,107.647 L327.998,107.647 L327.998,113.444 L309.295,113.444 L309.295,120.559 L332.52,120.559 L332.52,126.355 L303.455,126.355 L303.455,94.736 Z M316.714,62.808 L306.484,62.808 L306.353,62.808 L306.353,73.656 L300.557,73.656 L300.557,42.08 L326.021,42.08 C327.719,42.08 329.167,42.681 330.368,43.881 C331.568,45.082 332.167,46.516 332.167,48.184 L332.167,56.704 C332.167,58.373 331.568,59.808 330.368,61.008 C329.167,62.209 327.719,62.808 326.021,62.808 L324.309,62.808 L332.167,72.163 L332.167,73.656 L325.846,73.656 L316.714,62.808 Z M326.021,57.012 C326.226,57.012 326.328,56.91 326.328,56.704 L326.328,48.184 C326.328,47.98 326.226,47.877 326.021,47.877 L306.66,47.877 C306.455,47.877 306.353,47.98 306.353,48.184 L306.353,56.704 C306.353,56.91 306.455,57.012 306.66,57.012 L326.021,57.012 Z M288.178,179.056 L268.772,179.056 C267.074,179.056 265.633,178.463 264.448,177.277 C263.263,176.091 262.67,174.649 262.67,172.951 L262.67,170.536 L268.465,170.536 L268.465,172.951 C268.465,173.156 268.567,173.259 268.772,173.259 L288.178,173.259 C288.353,173.259 288.441,173.156 288.441,172.951 L288.441,166.451 C288.441,166.247 288.353,166.145 288.178,166.145 L268.772,166.145 C267.074,166.145 265.633,165.551 264.448,164.365 C263.263,163.18 262.67,161.738 262.67,160.04 L262.67,153.54 C262.67,151.843 263.263,150.4 264.448,149.214 C265.633,148.028 267.074,147.435 268.772,147.435 L288.178,147.435 C289.845,147.435 291.28,148.028 292.48,149.214 C293.68,150.4 294.28,151.843 294.28,153.54 L294.28,155.955 L288.441,155.955 L288.441,153.54 C288.441,153.336 288.353,153.232 288.178,153.232 L268.772,153.232 C268.567,153.232 268.465,153.336 268.465,153.54 L268.465,160.04 C268.465,160.245 268.567,160.347 268.772,160.347 L288.178,160.347 C289.845,160.347 291.28,160.94 292.48,162.126 C293.68,163.311 294.28,164.754 294.28,166.451 L294.28,172.951 C294.28,174.649 293.68,176.091 292.48,177.277 C291.28,178.463 289.845,179.056 288.178,179.056 Z M288.178,126.355 L268.772,126.355 C267.074,126.355 265.633,125.763 264.448,124.578 C263.263,123.391 262.67,121.95 262.67,120.251 L262.67,117.836 L268.465,117.836 L268.465,120.251 C268.465,120.456 268.567,120.559 268.772,120.559 L288.178,120.559 C288.353,120.559 288.441,120.456 288.441,120.251 L288.441,113.752 C288.441,113.547 288.353,113.444 288.178,113.444 L268.772,113.444 C267.074,113.444 265.633,112.851 264.448,111.666 C263.263,110.48 262.67,109.038 262.67,107.34 L262.67,100.84 C262.67,99.143 263.263,97.7 264.448,96.515 C265.633,95.329 267.074,94.736 268.772,94.736 L288.178,94.736 C289.845,94.736 291.28,95.329 292.48,96.515 C293.68,97.7 294.28,99.143 294.28,100.84 L294.28,103.256 L288.441,103.256 L288.441,100.84 C288.441,100.636 288.353,100.533 288.178,100.533 L268.772,100.533 C268.567,100.533 268.465,100.636 268.465,100.84 L268.465,107.34 C268.465,107.545 268.567,107.647 268.772,107.647 L288.178,107.647 C289.845,107.647 291.28,108.24 292.48,109.426 C293.68,110.612 294.28,112.054 294.28,113.752 L294.28,120.251 C294.28,121.95 293.68,123.391 292.48,124.578 C291.28,125.763 289.845,126.355 288.178,126.355 L288.178,126.355 Z M280.055,73.656 L274.216,73.656 L274.216,47.833 L261.308,47.833 L261.308,42.036 L292.919,42.036 L292.919,47.833 L280.055,47.833 L280.055,73.656 Z M434.902,179.056 L429.106,179.056 L429.106,147.435 L434.902,147.435 L434.902,179.056 Z M469.057,94.736 L469.057,126.355 L463.262,126.355 L463.262,94.736 L469.057,94.736 Z M449.214,147.435 L474.634,147.435 L474.634,153.232 L449.214,153.232 C449.009,153.232 448.907,153.336 448.907,153.54 L448.907,172.951 C448.907,173.156 449.009,173.259 449.214,173.259 L474.634,173.259 L474.634,179.056 L449.214,179.056 C447.516,179.056 446.075,178.463 444.89,177.277 C443.704,176.091 443.111,174.649 443.111,172.951 L443.111,153.54 C443.111,151.843 443.704,150.4 444.89,149.214 C446.075,148.028 447.516,147.435 449.214,147.435 L449.214,147.435 Z M507.296,100.533 L494.433,100.533 L494.433,126.355 L488.594,126.355 L488.594,100.533 L475.686,100.533 L475.686,94.736 L507.296,94.736 L507.296,100.533 Z M512.741,153.232 L489.516,153.232 L489.516,160.347 L508.219,160.347 L508.219,166.145 L489.516,166.145 L489.516,173.259 L512.741,173.259 L512.741,179.056 L483.677,179.056 L483.677,147.435 L512.741,147.435 L512.741,153.232 Z" id="Shape" fill="#FFFFFF"></path>
        </g>
        <g id="Group-2" transform="translate(0.000000, 261.000000)">
            <text id="A-Company" font-family="Barlow-Medium, Barlow" font-size="46" font-weight="400" fill="#FFFFFF">
                <tspan x="54.596" y="46">A                         Company</tspan>
            </text>
            <g id="cybercx_FinalLogo_01_RGB_Negative" transform="translate(107.000000, 6.000000)" fill-rule="nonzero">
                <g id="Group">
                    <path d="M4.64901161,37.9775676 C2.73162264,36.5816603 1.43147533,34.6985024 0.722304064,32.3149248 C0.236390421,30.6819766 0,28.3642438 0,25.388064 C0,22.7016009 0.236390421,20.4365438 0.722304064,18.5797237 C1.39207692,16.2751598 2.69222424,14.4183397 4.62274601,13.0224324 C6.55326778,11.6265251 8.85150799,10.9285714 11.5305994,10.9285714 C14.2359565,10.9285714 16.5867279,11.6133561 18.5697809,12.9960945 C20.5528338,14.3788329 21.8398483,16.0907947 22.4439572,18.1319799 C22.6278164,18.8035956 22.7460116,19.356691 22.7722772,19.8044348 L22.7722772,19.9097863 C22.7722772,20.1731651 22.6015508,20.3443612 22.2732308,20.4102059 L19.4890769,20.805274 L19.3840145,20.805274 C19.1213585,20.805274 18.9506321,20.6340779 18.8849681,20.3048544 L18.7142417,19.4620425 C18.3859216,18.0529662 17.5585552,16.8414241 16.2584078,15.8669227 C14.9582605,14.8792525 13.3823244,14.3920018 11.5305994,14.3920018 C9.67887446,14.3920018 8.12920392,14.8792525 6.88158781,15.8669227 C5.6339717,16.854593 4.83287083,18.1714867 4.4651524,19.8044348 C4.13683237,21.2135111 3.96610595,23.096669 3.96610595,25.4407398 C3.96610595,27.903331 4.13683237,29.7996579 4.4651524,31.1297205 C4.83287083,32.8021755 5.6471045,34.1322381 6.88158781,35.1199083 C8.12920392,36.1075786 9.67887446,36.5948293 11.5305994,36.5948293 C13.342926,36.5948293 14.9188621,36.1207475 16.2321422,35.1725841 C17.5454224,34.2244206 18.3727888,32.9997095 18.7142417,31.5116197 L18.7142417,31.2877477 L18.7667729,31.0638758 C18.8061713,30.6951456 19.0294289,30.5371183 19.4365457,30.6161319 L22.1681684,31.0638758 C22.5358868,31.1428894 22.7066132,31.3404235 22.6672148,31.6828158 L22.4439572,32.8021755 C21.8923795,34.9618811 20.605365,36.7133497 18.5960465,38.0565812 C16.5867279,39.3998128 14.2359565,40.0714286 11.5305994,40.0714286 C8.85150799,40.0714286 6.55326778,39.3734749 4.64901161,37.9775676 Z" id="Path" fill="#75AEFF"></path>
                    <path d="M27.8573525,50.4244918 L27.8573525,48.149227 C27.8573525,47.7744775 28.0477407,47.5871028 28.4285172,47.5871028 L28.6597029,47.5871028 C30.1556105,47.546951 31.3251382,47.3328085 32.1546869,46.9312912 C32.9842356,46.5297738 33.6913919,45.7936587 34.2897549,44.7229459 C34.888118,43.6388491 35.5272785,42.006012 36.2208356,39.8110507 C36.3024306,39.6638277 36.3024306,39.5433725 36.2208356,39.4764529 L26.4702382,11.5576152 L26.4158416,11.3300887 C26.4158416,11.0624105 26.5926307,10.9285714 26.9326096,10.9285714 L29.9924205,10.9285714 C30.3323995,10.9285714 30.5635852,11.0757944 30.6859777,11.3836244 L38.1791146,34.3102634 C38.219912,34.3905668 38.2743087,34.4173347 38.3559036,34.4173347 C38.4374986,34.4173347 38.4918952,34.3771829 38.5326927,34.3102634 L45.9170363,11.3836244 C46.0258296,11.0757944 46.2570153,10.9285714 46.6105935,10.9285714 L49.6024086,10.9285714 C50.0239825,10.9285714 50.1735733,11.142714 50.06478,11.5576152 L39.4030389,42.1398511 C38.4782961,44.6694102 37.621549,46.5431577 36.8055995,47.7610936 C36.003249,48.9656456 34.9833121,49.8088319 33.7729869,50.2906527 C32.5626617,50.7590896 30.8627667,51 28.6733021,51 L28.2653273,51 C27.9933441,51 27.8573525,50.8126253 27.8573525,50.4244918 Z" id="Path" fill="#75AEFF"></path>
                    <path d="M78.3366337,25.2949224 C78.3366337,28.391715 78.0685668,30.7810507 77.5458365,32.4762777 C76.8220561,34.8122204 75.5755453,36.6676263 73.7929009,38.0291472 C72.0102565,39.3906681 69.7987051,40.0714286 67.1448435,40.0714286 C65.6302659,40.0714286 64.2497217,39.764419 62.9898076,39.163748 C61.7432969,38.563077 60.6978362,37.6954411 59.8668291,36.5608404 C59.826619,36.4807509 59.7730057,36.4540544 59.6925856,36.4807509 C59.6121656,36.4940992 59.5853589,36.5474921 59.5853589,36.6275816 L59.5853589,39.056962 C59.5853589,39.4307129 59.3977121,39.6175883 59.0224185,39.6175883 L56.1272968,39.6175883 C55.7520032,39.6175883 55.5643564,39.4307129 55.5643564,39.056962 L55.5643564,0.560626249 C55.5643564,0.186875416 55.7520032,0 56.1272968,0 L59.0224185,0 C59.3977121,0 59.5853589,0.186875416 59.5853589,0.560626249 L59.5853589,13.9222185 C59.5853589,14.002308 59.6121656,14.0423527 59.6657789,14.0690492 C59.7193923,14.0823974 59.786409,14.055701 59.8668291,13.9889597 C60.6978362,12.8944037 61.7432969,12.0401161 62.9898076,11.4394451 C64.2363184,10.8387742 65.6168626,10.5317645 67.1448435,10.5317645 C69.8389151,10.5317645 72.0906765,11.2258732 73.913531,12.6007424 C75.7363854,13.9756115 76.9828962,15.8710621 77.6664666,18.2870943 C78.1087769,19.9823213 78.3366337,22.318264 78.3366337,25.2949224 Z M74.0743711,29.4595746 C74.2218078,28.4584563 74.3022279,27.0702389 74.3022279,25.2949224 C74.3022279,23.4528648 74.1950011,21.9979062 73.993951,20.9700914 C73.7794975,19.9289283 73.4578174,18.9945513 73.0021037,18.1669601 C72.5061801,16.9255734 71.715383,15.9244551 70.616309,15.1636052 C69.5172349,14.4027553 68.2037075,14.0290045 66.6891299,14.0290045 C65.2549723,14.0290045 64.0084616,14.4161036 62.9630009,15.1903017 C61.9175403,15.9644999 61.1669532,16.9923146 60.7246429,18.2737461 C60.3493494,19.0612925 60.0678792,19.9689731 59.9070391,20.9967879 C59.7327956,22.0112544 59.6523756,23.4528648 59.6523756,25.2949224 C59.6523756,27.1102836 59.7327956,28.5118492 59.9070391,29.5129675 C60.0812825,30.5140858 60.335946,31.4084182 60.6710296,32.1959646 C61.1669532,33.5174408 61.9175403,34.571952 62.9495976,35.3594984 C63.9682516,36.1470448 65.241569,36.5474921 66.7561466,36.5474921 C68.3511442,36.5474921 69.7182851,36.1470448 70.8709724,35.3594984 C72.0236598,34.571952 72.8278603,33.4907443 73.2835739,32.1292234 C73.6588675,31.3550252 73.913531,30.4606929 74.0743711,29.4595746 Z" id="Shape" fill="#75AEFF"></path>
                    <path d="M106.574257,24.6320268 L106.574257,26.4205776 C106.574257,26.7888087 106.38976,26.9729242 106.020765,26.9729242 L87.966355,26.9729242 C87.8213926,26.9729242 87.7423221,27.0518308 87.7423221,27.196493 C87.8213926,29.2349149 87.9268198,30.5631769 88.0717822,31.1549768 C88.4803126,32.8251676 89.3632655,34.1534296 90.694284,35.1134605 C92.0384809,36.0866426 93.7516731,36.5600825 95.8338605,36.5600825 C97.4020902,36.5600825 98.7726439,36.2050026 99.9718784,35.4948427 C101.157935,34.7846828 102.093601,33.7851986 102.765699,32.4832388 C102.989732,32.1544611 103.2533,32.0755544 103.543225,32.2596699 L105.717661,33.5484786 C106.020765,33.7325941 106.086657,33.9956163 105.941694,34.324394 C105.006028,36.1129448 103.609117,37.5069624 101.750963,38.5327488 C99.892808,39.5585353 97.7447286,40.0714286 95.3199028,40.0714286 C92.6710442,40.0319752 90.4570728,39.400722 88.6648102,38.1776689 C86.8725477,36.9546158 85.5942428,35.2449716 84.8035387,33.0487365 C84.1314402,31.2601857 83.8019802,28.6957194 83.8019802,25.3553378 C83.8019802,23.7903559 83.828337,22.5146983 83.8810506,21.5415162 C83.9337642,20.5551831 84.0787266,19.6740588 84.3027594,18.8981434 C84.9353227,16.4783394 86.2136276,14.5451264 88.1244958,13.0985044 C90.0485424,11.6518824 92.367941,10.9285714 95.0826916,10.9285714 C98.4695407,10.9285714 101.078864,11.7833935 102.910662,13.4930376 C104.729281,15.2026818 105.875802,17.6224858 106.323868,20.7392986 C106.495187,21.7650851 106.574257,23.0670449 106.574257,24.6320268 Z M90.5625,15.7944817 C89.3500871,16.7413615 88.559383,18.0170191 88.1903878,19.6083032 C87.966355,20.3842187 87.8213926,21.6467251 87.7423221,23.3958226 C87.7423221,23.5404848 87.8213926,23.6193914 87.966355,23.6193914 L102.436239,23.6193914 C102.581202,23.6193914 102.660272,23.5404848 102.660272,23.3958226 C102.581202,21.7256318 102.475775,20.5288809 102.330812,19.8318721 C101.922282,18.1616813 101.092043,16.8334193 99.8400944,15.8470861 C98.5881463,14.860753 97.0199166,14.3741619 95.1222268,14.3741619 C93.290429,14.3610108 91.7749129,14.8344507 90.5625,15.7944817 Z" id="Shape" fill="#75AEFF"></path>
                    <path d="M128.978598,11.6562892 C129.29297,11.804425 129.402317,12.0602959 129.320307,12.3969682 L128.677894,15.1980814 C128.568547,15.5751544 128.308848,15.6963564 127.926134,15.5347537 C127.270052,15.2654159 126.518292,15.130747 125.670854,15.130747 L124.919094,15.1846145 C122.909844,15.2654159 121.242303,15.992628 119.93014,17.3797177 C118.617977,18.7668075 117.961896,20.5309701 117.961896,22.6587389 L117.961896,39.5058192 C117.961896,39.8828921 117.770539,40.0714286 117.387824,40.0714286 L114.435457,40.0714286 C114.052743,40.0714286 113.861386,39.8828921 113.861386,39.5058192 L113.861386,11.7774912 C113.861386,11.4004182 114.052743,11.2118818 114.435457,11.2118818 L117.387824,11.2118818 C117.770539,11.2118818 117.961896,11.4004182 117.961896,11.7774912 L117.961896,15.2654159 C117.961896,15.373151 117.989232,15.4404855 118.043906,15.4674192 C118.098579,15.4808861 118.153253,15.4539523 118.194258,15.3866179 C119.000691,13.9725944 120.039487,12.8817762 121.296977,12.1006966 C122.554466,11.3196169 124.016981,10.9290771 125.670854,10.9290771 C126.95568,10.9156102 128.049149,11.1714811 128.978598,11.6562892 Z" id="Path" fill="#75AEFF"></path>
                    <path d="M137.16485,37.8447383 C135.106376,36.3737732 133.707152,34.3764995 132.940269,31.8664122 C132.375198,30.1120502 132.079208,27.8043893 132.079208,24.9434297 C132.079208,22.3118866 132.361744,20.0042257 132.940269,18.0204471 C133.707152,15.5778353 135.11983,13.634542 137.191759,12.1905671 C139.263687,10.7465921 141.725784,10.0178571 144.578049,10.0178571 C147.430314,10.0178571 149.919319,10.7465921 152.045064,12.1905671 C154.170808,13.634542 155.556579,15.4698746 156.215829,17.6830698 C156.444548,18.290349 156.592543,18.9246183 156.673267,19.5723828 C156.673267,19.8827699 156.498364,20.0717012 156.162012,20.1391767 L151.883615,20.773446 L151.775982,20.773446 C151.5069,20.773446 151.318543,20.5980098 151.210911,20.2606325 L151.036008,19.3429662 C150.726564,18.0474373 149.986589,16.9543348 148.816084,16.0771538 C147.632125,15.1999727 146.205993,14.7546347 144.537687,14.7546347 C142.896289,14.7546347 141.510518,15.1999727 140.366922,16.0771538 C139.223325,16.9543348 138.48335,18.1149128 138.146998,19.5723828 C137.810646,20.9488822 137.635743,22.7572246 137.635743,25.0109051 C137.635743,27.2241003 137.810646,29.0189477 138.146998,30.3954471 C138.523713,31.9203926 139.277141,33.1214558 140.39383,33.9986369 C141.510518,34.8758179 142.896289,35.3211559 144.524233,35.3211559 C146.192539,35.3211559 147.632125,34.889313 148.829538,33.9986369 C150.026951,33.1214558 150.78038,31.974373 151.07637,30.5708833 C151.116732,30.530398 151.130186,30.4899128 151.103278,30.4224373 C151.089824,30.3684569 151.089824,30.3144766 151.130186,30.2739913 L151.130186,30.0445747 C151.237819,29.7341876 151.453084,29.6262268 151.762528,29.7071974 L156.040926,30.3954471 C156.350369,30.4764177 156.498364,30.6248637 156.498364,30.8542803 L156.498364,31.0836968 C156.498364,31.4210742 156.404186,31.8529171 156.215829,32.3387405 C155.570033,34.6598964 154.184262,36.5357143 152.045064,37.952699 C149.919319,39.3696838 147.430314,40.0714286 144.578049,40.0714286 C141.685421,40.0444384 139.223325,39.3022083 137.16485,37.8447383 Z" id="Path" fill="#FFFFFF"></path>
                    <path d="M158.548631,39.8688601 C158.468259,39.7338144 158.49505,39.5717596 158.602213,39.3826956 L168.032615,25.7025685 C168.112988,25.594532 168.112988,25.4729909 168.032615,25.3649543 L158.602213,11.6173044 L158.49505,11.3337085 C158.49505,11.0636171 158.66919,10.9285714 159.004077,10.9285714 L163.598719,10.9285714 C163.906814,10.9285714 164.134537,11.036608 164.281887,11.2661856 L170.926034,21.0569972 C170.96622,21.0975109 171.019802,21.1110155 171.100175,21.1110155 C171.180547,21.1110155 171.234129,21.0975109 171.274316,21.0569972 L177.864881,11.2661856 C178.012231,11.036608 178.239953,10.9285714 178.548049,10.9285714 L183.490973,10.9285714 C183.718695,10.9285714 183.866045,10.9960943 183.946418,11.1311399 C184.026791,11.2661856 184,11.4282404 183.892836,11.6173044 L174.462434,25.3649543 C174.422248,25.4729909 174.422248,25.594532 174.462434,25.7025685 L183.892836,39.3826956 L184,39.6662915 C184,39.9363829 183.825859,40.0714286 183.490973,40.0714286 L178.829354,40.0714286 C178.521258,40.0714286 178.293535,39.963392 178.146185,39.7338144 L171.55562,29.9430028 C171.515434,29.8619754 171.461852,29.8349662 171.381479,29.8349662 C171.301107,29.8349662 171.247525,29.8754799 171.207338,29.9430028 L164.563192,39.7338144 C164.415842,39.963392 164.188119,40.0714286 163.880023,40.0714286 L158.990681,40.0714286 C158.776354,40.0714286 158.629004,40.0039057 158.548631,39.8688601 Z" id="Path" fill="#FFFFFF"></path>
                </g>
            </g>
        </g>
        <path d="M3.5,248.5 L553.5,248.5" id="Line" stroke-opacity="0.248251748" stroke="#FFFFFF" stroke-width="2" stroke-linecap="square"></path>
    </g>
</svg>