<svg viewBox="0 0 573 240" xmlns="http://www.w3.org/2000/svg"><g fill-rule="evenodd"><path d="m206.187 21.094-84.35-.001.002 183.985-9.372 9.375-9.373-9.375-.002-183.985-84.348.001-18.744-18.75v-2.344h224.93v2.344zm-114.808 82.031h-18.744v-18.75h18.744zm-42.175 0v-42.188h42.175v14.063h-28.116v28.125zm42.175-53.906h-53.89v65.625h53.89v49.219h-18.744v-30.469h-53.89v-103.125h72.634zm-42.175 124.568v-28.475h14.059v22.643l5.487 5.489h22.629l-.017 14.056h-28.449zm-11.715 4.873 20.739 20.746h33.151v4.903l17.573 17.574v3.117l-58.576-6.913-31.631-31.641v-41.134l18.744-.001zm96.065-33.348h18.744v18.751h-18.744zm42.174 0v28.475l-13.725 13.713h-28.449v-14.056h22.628l5.488-5.489v-22.643zm-42.174-114.843h72.634v72.656h-18.745v-53.906h-53.889zm0 72.656v-18.75h18.744v18.75zm0-42.188h42.174v42.188h-14.058v-28.125h-28.116zm0 138.469h32.985l20.904-20.746v-45.066h-53.889v-18.75h72.634v71.602l-31.52 31.641-58.687 6.913v-3.117l17.573-17.574z" fill="#30c699"/><path d="m266.492 118.347h19.407c1.667 0 3.101.593 4.302 1.779 1.2 1.185 1.799 2.628 1.799 4.325v6.5c0 1.698-.599 3.14-1.799 4.326-1.201 1.186-2.635 1.779-4.302 1.779h-19.407c-1.697 0-3.138-.593-4.323-1.779-1.186-1.186-1.778-2.628-1.778-4.326v-2.415h5.795v2.415c0 .205.101.308.306.308h19.407c.174 0 .262-.103.262-.308v-6.5c0-.204-.088-.306-.262-.306h-19.407c-1.697 0-3.138-.594-4.323-1.78-1.186-1.185-1.778-2.627-1.778-4.325v-6.5c0-1.697.592-3.14 1.778-4.326 1.185-1.186 2.626-1.779 4.323-1.779h19.407c1.667 0 3.101.593 4.302 1.779 1.2 1.186 1.799 2.629 1.799 4.326v2.415h-5.839v-2.415c0-.204-.088-.308-.262-.308h-19.407c-.205 0-.306.104-.306.308v6.5c0 .205.101.307.306.307zm6.19-33.992h-5.795v-11.813l-14.62-19.806h6.893l10.624 13.438 10.581-13.438h6.937l-14.62 19.806zm-9.966-52.699h-25.464v-31.62h25.464c1.698 0 3.147.593 4.347 1.779 1.199 1.185 1.8 2.628 1.8 4.326v19.411c0 1.698-.601 3.14-1.8 4.325-1.2 1.186-2.649 1.779-4.347 1.779zm.308-25.515c0-.205-.103-.308-.308-.308h-19.361c-.205 0-.308.103-.308.308v19.411c0 .205.103.307.308.307h19.361c.205 0 .308-.102.308-.307zm-63.791-6.105h29.064v5.797h-23.225v7.115h18.703v5.797h-18.703v7.114h23.225v5.797h-29.064zm-21.512 73.472h-10.231-.13v10.847h-5.796v-31.575h25.463c1.698 0 3.147.6 4.348 1.8 1.2 1.201 1.799 2.635 1.799 4.304v8.52c0 1.669-.599 3.104-1.799 4.304-1.201 1.201-2.65 1.8-4.348 1.8h-1.711l7.858 9.355v1.492h-6.321zm9.306-5.797c.206 0 .308-.102.308-.307v-8.52c0-.204-.102-.307-.308-.307h-19.361c-.205 0-.306.103-.306.307v8.52c0 .205.101.307.306.307zm-8.429-36.055h-5.839v-25.823h-12.908v-5.797h31.611v5.797h-12.864zm-36.395 105.4h-5.224l-18.264-31.621h6.718l14.18 24.594 14.138-24.594h6.716zm4.083-52.701h-19.405c-1.698 0-3.139-.592-4.324-1.777-1.185-1.187-1.779-2.628-1.779-4.327v-25.515h5.796v25.515c0 .205.102.308.307.308h19.405c.176 0 .264-.103.264-.308v-25.515h5.839v25.515c0 1.699-.6 3.14-1.8 4.327-1.2 1.185-2.635 1.777-4.303 1.777zm-.043-52.699h-19.406c-1.698 0-3.139-.593-4.324-1.779-1.185-1.185-1.778-2.627-1.778-4.325v-2.416h5.795v2.416c0 .205.102.307.307.307h19.406c.175 0 .263-.102.263-.307v-6.5c0-.204-.088-.307-.263-.307h-19.406c-1.698 0-3.139-.593-4.324-1.779s-1.778-2.628-1.778-4.326v-6.499c0-1.698.593-3.141 1.778-4.326 1.185-1.186 2.626-1.779 4.324-1.779h19.406c1.668 0 3.102.593 4.302 1.779 1.2 1.185 1.8 2.628 1.8 4.326v2.415h-5.839v-2.415c0-.205-.088-.308-.263-.308h-19.406c-.205 0-.307.103-.307.308v6.499c0 .205.102.308.307.308h19.406c1.668 0 3.102.593 4.302 1.779 1.2 1.185 1.8 2.627 1.8 4.325v6.5c0 1.698-.6 3.14-1.8 4.325-1.2 1.186-2.634 1.779-4.302 1.779zm-49.743 94.552h-10.23-.131v10.848h-5.796v-31.577h25.464c1.698 0 3.147.601 4.347 1.801s1.8 2.635 1.8 4.304v8.52c0 1.668-.6 3.103-1.8 4.303-1.2 1.201-2.649 1.801-4.347 1.801h-1.711l7.858 9.355v1.493h-6.322zm9.307-5.797c.205 0 .308-.103.308-.307v-8.52c0-.204-.103-.308-.308-.308h-19.361c-.205 0-.307.104-.307.308v8.52c0 .204.102.307.307.307zm-23.641-37.833c-1.186-1.187-1.779-2.628-1.779-4.327v-19.411c0-1.697.593-3.14 1.779-4.325 1.185-1.186 2.626-1.779 4.324-1.779h25.42v5.797h-25.42c-.205 0-.307.103-.307.307v19.411c0 .205.102.308.307.308h25.42v5.796h-25.42c-1.698 0-3.139-.592-4.324-1.777zm23.465-50.922h-19.405c-1.697 0-3.138-.593-4.324-1.779-1.185-1.185-1.778-2.627-1.778-4.325v-25.516h5.796v25.516c0 .205.101.307.306.307h19.405c.176 0 .264-.102.264-.307v-25.516h5.839v25.516c0 1.698-.599 3.14-1.799 4.325-1.201 1.186-2.635 1.779-4.304 1.779zm-63.176 73.779h29.065v5.797h-23.225v7.115h18.703v5.798h-18.703v7.114h23.225v5.797h-29.065zm0-52.699h29.065v5.797h-23.225v7.114h18.703v5.797h-18.703v7.115h23.225v5.796h-29.065zm13.259-31.928h-10.23-.131v10.848h-5.796v-31.576h25.464c1.698 0 3.146.601 4.347 1.801 1.2 1.201 1.799 2.635 1.799 4.303v8.52c0 1.669-.599 3.104-1.799 4.304-1.201 1.201-2.649 1.8-4.347 1.8h-1.712l7.858 9.355v1.493h-6.321zm9.307-5.796c.205 0 .307-.102.307-.308v-8.52c0-.204-.102-.307-.307-.307h-19.361c-.205 0-.307.103-.307.307v8.52c0 .206.102.308.307.308zm-37.843 122.044h-19.406c-1.698 0-3.139-.593-4.324-1.779s-1.778-2.628-1.778-4.326v-2.415h5.795v2.415c0 .205.102.308.307.308h19.406c.175 0 .263-.103.263-.308v-6.5c0-.204-.088-.306-.263-.306h-19.406c-1.698 0-3.139-.594-4.324-1.78-1.185-1.185-1.778-2.627-1.778-4.325v-6.5c0-1.697.593-3.14 1.778-4.326s2.626-1.779 4.324-1.779h19.406c1.667 0 3.102.593 4.302 1.779s1.8 2.629 1.8 4.326v2.415h-5.839v-2.415c0-.204-.088-.308-.263-.308h-19.406c-.205 0-.307.104-.307.308v6.5c0 .205.102.307.307.307h19.406c1.667 0 3.102.593 4.302 1.779 1.2 1.185 1.8 2.628 1.8 4.325v6.5c0 1.698-.6 3.14-1.8 4.326s-2.635 1.779-4.302 1.779zm0-52.701h-19.406c-1.698 0-3.139-.592-4.324-1.777-1.185-1.187-1.778-2.628-1.778-4.327v-2.415h5.795v2.415c0 .205.102.308.307.308h19.406c.175 0 .263-.103.263-.308v-6.499c0-.205-.088-.308-.263-.308h-19.406c-1.698 0-3.139-.593-4.324-1.778-1.185-1.186-1.778-2.628-1.778-4.326v-6.5c0-1.697.593-3.14 1.778-4.325 1.185-1.186 2.626-1.779 4.324-1.779h19.406c1.667 0 3.102.593 4.302 1.779 1.2 1.185 1.8 2.628 1.8 4.325v2.416h-5.839v-2.416c0-.204-.088-.307-.263-.307h-19.406c-.205 0-.307.103-.307.307v6.5c0 .205.102.307.307.307h19.406c1.667 0 3.102.593 4.302 1.779s1.8 2.628 1.8 4.326v6.499c0 1.699-.6 3.14-1.8 4.327-1.2 1.185-2.635 1.777-4.302 1.777zm-8.123-52.699h-5.839v-25.823h-12.908v-5.797h31.611v5.797h-12.864zm154.847 105.4h-5.796v-31.621h5.796zm34.155-84.32v31.619h-5.795v-31.619zm-19.843 52.699h25.42v5.797h-25.42c-.205 0-.307.104-.307.308v19.411c0 .205.102.308.307.308h25.42v5.797h-25.42c-1.698 0-3.139-.593-4.324-1.779-1.186-1.186-1.779-2.628-1.779-4.326v-19.411c0-1.697.593-3.14 1.779-4.326 1.185-1.186 2.626-1.779 4.324-1.779zm58.082-46.902h-12.863v25.822h-5.839v-25.822h-12.908v-5.797h31.61zm5.445 52.699h-23.225v7.115h18.703v5.798h-18.703v7.114h23.225v5.797h-29.064v-31.621h29.064z" fill="#fff" transform="translate(261 42)"/></g></svg>